<svg width="110" height="38" viewBox="0 0 110 38" fill="none" xmlns="http://www.w3.org/2000/svg">
<g clip-path="url(#clip0_3820_1078)">
<path d="M94.7454 30.8679C94.7826 30.7936 94.7528 30.7489 94.7045 30.7378C92.6035 31.5745 88.0036 32.4111 85.1403 32.8388C82.6638 33.2106 80.5405 33.2701 79.3543 33.3519L78.8151 33.3966C78.7518 33.4077 78.7147 33.4449 78.7072 33.497C78.6924 33.5416 78.7258 33.5751 78.763 33.6011C78.9787 33.8428 79.6778 34.4935 81.0722 34.6981C82.6712 34.9175 85.0511 34.501 88.0148 33.6457C90.5025 32.9355 93.3509 31.7046 94.7417 30.8679H94.7454Z" fill="white"/>
<path d="M94.9612 32.1138C93.6299 33.0248 91.8227 33.9024 89.6585 34.6535C87.4646 35.4159 85.1033 36.0629 82.5338 36.4868C82.4854 36.5017 82.4445 36.5351 82.4333 36.5835C82.4333 36.6169 82.4445 36.6541 82.4668 36.6727C82.8907 37.0074 83.4374 37.2045 84.1067 37.2789C84.9359 37.3718 85.9325 37.2603 87.0778 36.9591C88.0967 36.6876 89.071 36.2377 90.1791 35.7059C91.2315 35.1965 92.2318 34.6052 93.0833 33.9954C93.9535 33.3744 94.6116 32.7645 95.0207 32.2328C95.0244 32.1584 95.0021 32.1249 94.9612 32.1175V32.1138Z" fill="white"/>
<path d="M84.1622 8.58255C84.694 9.15521 85.3856 9.56425 86.226 9.82827L86.2893 9.85058C86.5235 9.9138 100.531 13.6026 104.242 14.6029C105.864 15.038 107.15 15.3875 107.753 15.5623C107.816 15.566 107.849 15.54 107.857 15.5028C107.857 15.4731 107.838 15.4433 107.805 15.4284C105.462 14.4876 91.0267 8.95069 85.5864 6.8683L83.2958 5.98328C83.2177 5.97584 83.1805 5.97956 83.1508 6.00931C83.1285 6.03534 83.1248 6.07624 83.1248 6.09855C83.1433 6.29192 83.2623 7.33312 83.7272 8.04708C83.861 8.25532 84.0061 8.43009 84.1622 8.58999V8.58255Z" fill="white"/>
<path d="M84.7684 3.07158C85.0473 3.41741 85.3151 3.64052 85.8282 3.94916C85.9993 4.05328 86.1703 4.16484 86.3674 4.25781L87.6578 4.91227C88.3903 5.28413 99.2113 10.3228 100.792 11.1074C102.662 12.0259 104.529 12.9072 105.347 13.3199C105.429 13.3348 105.47 13.3125 105.447 13.2158C103.432 11.959 95.6899 7.08763 90.1641 3.67399L86.2001 1.27924L85.475 0.833008L84.1289 0.018643C84.0545 -0.00738693 84.021 -0.00366836 83.995 0.018643C83.9541 0.0335173 83.9392 0.0707029 83.9392 0.0967328C83.9243 0.282661 83.9095 1.29783 84.2218 2.07501C84.3668 2.41712 84.5453 2.77782 84.7684 3.07158Z" fill="white"/>
<path d="M94.515 34.5381C94.4964 34.5381 94.4666 34.5381 94.4481 34.553C92.6557 36.3156 90.0118 37.3084 89.1342 37.5799C89.0859 37.5873 89.0487 37.6245 89.0413 37.6728C89.0413 37.7175 89.071 37.7658 89.1119 37.7844C89.2495 37.8513 90.313 38.424 92.3285 37.4051C93.4775 36.825 94.0576 35.8916 94.5745 34.6496C94.5931 34.5753 94.5485 34.5455 94.5113 34.5455L94.515 34.5381Z" fill="white"/>
<path d="M107.403 19.7049C106.503 19.9615 103.067 20.8465 100.037 21.6163C97.4115 22.293 94.4701 23.0963 94.4701 23.0963C94.1615 23.1743 94.2731 23.3008 94.3065 23.3454C94.3846 23.4681 94.5557 23.7358 94.749 24.0631C95.2213 24.8514 95.8609 24.751 96.4335 24.5502C96.5414 24.513 107.002 20.1512 107.474 19.8351C107.556 19.7905 107.504 19.7533 107.5 19.7272C107.489 19.6975 107.433 19.7049 107.407 19.7049H107.403Z" fill="white"/>
<path d="M102.807 26.9595L102.74 26.9855C101.357 28.1345 99.2523 29.9752 97.0695 31.8308C96.8613 31.9981 96.7832 32.3068 96.6977 32.6786C96.5601 33.2996 96.2403 34.1103 96.2403 34.1103C96.1771 34.2962 96.2663 34.3706 96.4411 34.1921C98.1219 32.3811 101.848 28.261 102.856 27.0859C102.878 27.0078 102.848 26.9669 102.804 26.9632L102.807 26.9595Z" fill="white"/>
<path d="M109.434 16.9161C107.575 16.574 84.9694 12.5653 84.9545 12.5653C84.9136 12.5616 84.8653 12.5839 84.8318 12.6174C84.8169 12.6583 84.8244 12.7067 84.8355 12.7513C85.2037 13.9189 86.085 15.0902 87.6096 15.5625C87.7844 15.6183 87.9331 15.6332 88.1041 15.6518C88.1041 15.6518 107.273 16.9086 109.408 17.0574C109.46 17.0574 109.497 17.0351 109.497 16.9979C109.497 16.9607 109.471 16.9272 109.43 16.9198L109.434 16.9161Z" fill="white"/>
<path d="M108.493 18.2061C107.82 18.2246 106.436 18.2321 104.711 18.2395C102.722 18.247 100.26 18.2581 97.9693 18.2618C94.8866 18.273 89.993 18.3027 89.993 18.3027C89.9632 18.3065 89.9223 18.3213 89.9 18.3585C89.8777 18.3957 89.8777 18.4254 89.9 18.4589C89.9632 18.6672 90.2496 19.1878 90.5582 19.515C91.1755 20.1546 91.8411 20.4893 92.5365 20.5599C92.6183 20.5673 92.7001 20.5673 92.7856 20.5673C92.8712 20.5673 92.9493 20.5562 93.0459 20.5413C93.1389 20.5302 107.708 18.4775 108.497 18.3511C108.534 18.3436 108.56 18.3176 108.567 18.2879C108.567 18.2507 108.534 18.2098 108.493 18.2061Z" fill="white"/>
<path d="M106.232 21.7427C105.228 22.36 102.614 23.9589 100.386 25.3013C99.137 26.0599 97.5566 26.9412 96.7422 27.4507C96.6456 27.5102 96.5712 27.5064 96.6158 27.7593C96.6158 27.7593 96.653 28.001 96.679 28.2911C96.7645 29.5033 97.2591 29.3694 97.988 28.8079L98.0735 28.7373C100.591 26.6661 105.265 22.7318 106.284 21.8765C106.31 21.7873 106.284 21.7576 106.236 21.7427H106.232Z" fill="white"/>
<path d="M64.071 8.61963C59.0621 8.62707 54.3506 12.3159 54.1461 19.5039C53.9639 26.0411 57.3664 30.6149 63.1265 30.6149C67.8602 30.6149 69.5224 27.3166 69.5224 27.3166C69.7901 29.5254 70.9875 30.1985 73.3637 30.1985V8.61963H64.071ZM69.2956 21.3334C69.2956 24.3194 67.585 27.1641 63.8627 27.1641C60.5383 27.1641 58.1547 24.9292 58.3072 19.5485C58.4559 14.3871 60.9437 12.1151 64.2234 12.1151C64.48 12.1151 64.7217 12.1039 64.956 12.0853L69.2956 12.089V21.3334Z" fill="white"/>
<path d="M32.1543 8.61963L32.1692 23.5831C32.1692 25.7659 30.3657 26.8629 27.9821 26.8629C25.4721 26.8629 23.8322 25.7696 23.8322 23.5831L23.8024 12.3865C23.7987 9.19601 21.8018 8.61963 20.043 8.61963V24.5016C20.043 28.5139 23.65 30.4811 27.8594 30.4811C32.0688 30.4811 35.9435 28.5139 35.9435 24.5016V12.8774C35.9435 9.73892 34.761 8.62335 32.1543 8.62335V8.61963Z" fill="white"/>
<path d="M11.1148 18.2842L6.50749 17.0199C5.23946 16.6703 4.08298 16.12 4.08298 14.573C4.08298 13.0261 5.05725 12.1709 7.10618 12.1709H11.204C13.015 12.1709 15.1755 11.5684 15.1792 8.61963L7.46688 8.62707C2.71827 8.63078 0 11.0293 0 14.4689C0 17.6669 2.03034 19.4667 5.65594 20.4298L9.66455 21.4933C11.323 21.9395 11.9143 22.977 11.9143 24.0405C11.9143 25.6618 10.8917 26.6398 8.40395 26.6547L0.706527 26.7142V30.1985H8.5341C13.2827 30.1985 16.0047 27.6475 16.0047 24.2934C16.0047 20.9392 14.6735 19.251 11.1185 18.2842H11.1148Z" fill="white"/>
<path d="M48.9029 8.61963C44.2361 8.61963 41.0195 11.3156 41.0195 16.8711V30.1947H44.779V16.7447C44.779 13.8851 46.3222 12.1709 49.2264 12.1709H50.342C53.6403 12.1709 54.1758 10.464 54.1758 8.61963H48.8992H48.9029Z" fill="white"/>
</g>
<defs>
<clipPath id="clip0_3820_1078">
<rect width="109.501" height="38" fill="white"/>
</clipPath>
</defs>
</svg>
